# xmcd
#
# Track frame offsets:
#	150
#	14391
#	27009
#	41525
#	54313
#	72894
#	92027
#	105164
#	121627
#	136946
#	151133
#	164879
#	179464
#	193140
#
# Disc length: 2779 seconds
#
# Revision: 0
# Processed by: cddbd v1.4PL0 Copyright (c) Steve Scherf et al.
# Submitted via: dBpowerAMP V4.0
#
DISCID=ad0ad90e
DTITLE=Johnny Hansen - Godmorgen verden
DYEAR=1999
DGENRE=
TTITLE0=Godmorgen verden
TTITLE1=Maria
TTITLE2=Hvem tænder stjernerne
TTITLE3=Det er så skønt
TTITLE4=Anna og mig
TTITLE5=Elske dig
TTITLE6=Vil du ha' ham der eller mig
TTITLE7=Det går over min forstand
TTITLE8=Det var en sommerdag
TTITLE9=I thank my lucky stars
TTITLE10=Ska' vi holde fri
TTITLE11=Du er det kæreste
TTITLE12=Sister magic
TTITLE13=Piger og drenge
EXTD=
EXTT0=
EXTT1=
EXTT2=
EXTT3=
EXTT4=
EXTT5=
EXTT6=
EXTT7=
EXTT8=
EXTT9=
EXTT10=
EXTT11=
EXTT12=
EXTT13=
PLAYORDER=
